Coordinates
version=1
nRows=19
nColumns=24
inDegrees=yes

Units are S.I. units (second, meters, Newtons, ...)
Angles are in degrees.

endheader
time	pelvis_tilt	pelvis_list	pelvis_rotation	pelvis_tx	pelvis_ty	pelvis_tz	hip_flexion_r	hip_adduction_r	hip_rotation_r	knee_angle_r	ankle_angle_r	subtalar_angle_r	mtp_angle_r	hip_flexion_l	hip_adduction_l	hip_rotation_l	knee_angle_l	ankle_angle_l	subtalar_angle_l	mtp_angle_l	lumbar_extension	lumbar_bending	lumbar_rotation
      4.19000000	    -11.26256248	      2.58920600	      2.99623729	     -1.32218914	     -0.01043414	      0.43779530	     36.12985245	     -5.46659636	     -3.81103936	    -39.54611078	     -0.93643766	      0.42952937	     13.52747468	      7.14983756	      7.44544050	     17.61298050	     -9.50645306	      2.70882157	     -7.68041566	     -3.71318554	      7.41768665	     -2.88147017	      2.98824119
      4.19500000	    -11.32644119	      2.52329853	      3.03249740	     -1.31587332	     -0.01100205	      0.43805521	     36.46896112	     -5.42313262	     -3.87732494	    -38.06036752	     -1.07978184	      0.67013308	     13.44351006	      6.66983441	      7.31180941	     17.64383124	     -9.22655970	      2.92012244	     -7.70592744	     -3.67011603	      7.41919172	     -2.82039130	      2.85599168
      4.20000000	    -11.15916829	      2.41804610	      3.14003867	     -1.30942514	     -0.01135834	      0.43830787	     36.46929000	     -5.38121595	     -4.10616409	    -36.46872654	     -1.30053291	      0.76582788	     13.42902101	      5.91497832	      7.11802828	     17.76403852	     -8.91651030	      3.18553642	     -7.65638975	     -3.59129462	      7.17872267	     -2.73286880	      2.62114965
      4.20500000	    -11.08922791	      2.35988920	      3.21254665	     -1.30296995	     -0.01195955	      0.43859821	     36.57658034	     -5.36549333	     -4.25500135	    -34.88390220	     -1.54920331	      0.95448244	     13.47055183	      5.28818318	      6.98582665	     17.86408437	     -8.65809359	      3.43498942	     -7.68093603	     -3.55405671	      7.04592498	     -2.68693302	      2.45635708
      4.21000000	    -11.03311351	      2.31909109	      3.30723588	     -1.29648422	     -0.01267524	      0.43887940	     36.67034523	     -5.38068122	     -4.41985639	    -33.27705989	     -1.82344662	      1.17135017	     13.53275666	      4.69388451	      6.88182884	     17.99987328	     -8.44527109	      3.69248541	     -7.72402576	     -3.54107663	      6.92951867	     -2.66333563	      2.27999889
      4.21500000	    -10.96438402	      2.29063562	      3.41394353	     -1.28996316	     -0.01346854	      0.43920138	     36.72146716	     -5.40839444	     -4.57680497	    -31.64989501	     -2.12009062	      1.41560384	     13.63020770	      4.10017216	      6.79353264	     18.15750994	     -8.27009504	      3.95749558	     -7.78997877	     -3.55973822	      6.79886004	     -2.66350981	      2.08463432
      4.22000000	    -10.83124433	      2.28159827	      3.54889867	     -1.28347231	     -0.01427921	      0.43953341	     36.66219055	     -5.45761036	     -4.70011770	    -29.97836728	     -2.44587092	      1.63777027	     13.84864405	      3.46628589	      6.73366970	     18.34477669	     -8.16271886	      4.23509503	     -7.88521776	     -3.64117055	      6.58405575	     -2.68565044	      1.83887730
      4.22500000	    -10.73957273	      2.28034365	      3.69141031	     -1.27689868	     -0.01522045	      0.43983837	     36.62923412	     -5.52701946	     -4.84123111	    -28.31541854	     -2.77542269	      1.92280102	     14.08065669	      2.88664632	      6.68988549	     18.55542613	     -8.08831171	      4.52903805	     -7.98516721	     -3.73555558	      6.42756254	     -2.71321387	      1.60410987
      4.23000000	    -10.61572969	      2.28947963	      3.79327115	     -1.27027208	     -0.01619960	      0.44022601	     36.53763056	     -5.57217846	     -4.90710371	    -26.62621223	     -3.16982043	      2.18285175	     14.52654911	      2.27302253	      6.65251959	     18.74940567	     -8.03296334	      4.84828080	     -8.10982039	     -3.94752252	      6.24397732	     -2.74482467	      1.43654167
      4.23500000	    -10.62035016	      2.28889357	      3.98270344	     -1.26363311	     -0.01738458	      0.44053007	     36.57610565	     -5.67247756	     -5.06422683	    -25.01650620	     -3.39603277	      2.60566891	     14.59320147	      1.84600783	      6.62657479	     18.96217933	     -8.05712076	      5.16523935	     -8.18182193	     -3.93095741	      6.19889060	     -2.78889662	      1.16758712
      4.24000000	    -10.44791995	      2.28214684	      4.16441059	     -1.25703727	     -0.01837568	      0.44080688	     36.38991929	     -5.75807708	     -5.20110421	    -23.38232267	     -3.67983009	      3.03477561	     14.83978462	      1.22549862	      6.58230785	     19.19270794	     -8.08225586	      5.47964351	     -8.26746845	     -4.02115788	      5.94966353	     -2.80325323	      0.86701989
      4.24500000	    -10.34219057	      2.25840485	      4.33102734	     -1.25036710	     -0.01947855	      0.44115020	     36.25898594	     -5.81208371	     -5.28368388	    -21.77137769	     -3.91437822	      3.46250043	     15.10717325	      0.69190527	      6.52258093	     19.37235097	     -8.13827798	      5.81196985	     -8.33459408	     -4.08192907	      5.78549797	     -2.80880274	      0.60657818
      4.25000000	    -10.23752605	      2.22842295	      4.50659789	     -1.24372986	     -0.02059202	      0.44146043	     36.11989812	     -5.86820089	     -5.33462879	    -20.20125791	     -4.10120046	      3.92016938	     15.38975235	      0.18302578	      6.46246434	     19.51169629	     -8.23196079	      6.14805335	     -8.36565038	     -4.10149830	      5.61430330	     -2.80171109	      0.32913354
      4.25500000	    -10.08710495	      2.18641700	      4.68060962	     -1.23707911	     -0.02164729	      0.44178958	     35.90500772	     -5.90511496	     -5.33793719	    -18.63687985	     -4.27865648	      4.31700998	     15.82705715	     -0.36925314	      6.38367201	     19.60369847	     -8.33490315	      6.49126736	     -8.35439767	     -4.13710673	      5.39779520	     -2.77661435	      0.03031824
      4.26000000	    -10.05369779	      2.09325979	      4.86440398	     -1.23042109	     -0.02282784	      0.44204177	     35.82904327	     -5.92300596	     -5.38849868	    -17.17653518	     -4.35774761	      4.88942475	     16.03977280	     -0.76218225	      6.26944667	     19.66569507	     -8.48499242	      6.83762679	     -8.33786303	     -4.03035315	      5.31259837	     -2.69538537	     -0.23805328
      4.26500000	     -9.95384570	      1.99203262	      5.06547230	     -1.22374322	     -0.02391697	      0.44228384	     35.65400351	     -5.94014882	     -5.41391735	    -15.74453190	     -4.37627531	      5.45673917	     16.29717911	     -1.22318623	      6.13782639	     19.68861547	     -8.63799560	      7.17590062	     -8.26484796	     -3.89615051	      5.15682234	     -2.60038944	     -0.55655757
      4.27000000	     -9.87299327	      1.87201743	      5.26730216	     -1.21704849	     -0.02501605	      0.44252365	     35.49038627	     -5.94362980	     -5.40936814	    -14.36799503	     -4.37804160	      6.02042131	     16.55564637	     -1.65149012	      5.98879568	     19.67087568	     -8.80828905	      7.50412631	     -8.17965115	     -3.73789158	      5.02471281	     -2.48487433	     -0.87453844
      4.27500000	     -9.80556351	      1.73904410	      5.48127769	     -1.21033539	     -0.02611793	      0.44274513	     35.33149792	     -5.94771691	     -5.39089745	    -13.05381706	     -4.35309776	      6.59661863	     16.81956448	     -2.05157657	      5.82851224	     19.62323189	     -9.00044380	      7.82245080	     -8.07255415	     -3.55469539	      4.90818140	     -2.35356896	     -1.20707243
      4.28000000	     -9.76138152	      1.59040328	      5.70371415	     -1.20358089	     -0.02723278	      0.44295514	     35.18850758	     -5.94842935	     -5.36240051	    -11.80842287	     -4.30729587	      7.17937574	     17.07491207	     -2.41630268	      5.65270908	     19.55926081	     -9.21107347	      8.12737542	     -7.95169450	     -3.35831136	      4.82347816	     -2.20668645	     -1.54847722
